<?xml version="1.0" encoding="UTF-8"?>
<!DOCTYPE svg PUBLIC "-//W3C//DTD SVG 1.1//EN" "http://www.w3.org/Graphics/SVG/1.1/DTD/svg11.dtd">
<!-- Creator: CorelDRAW 2021 (64-Bit) -->
<svg xmlns="http://www.w3.org/2000/svg" xml:space="preserve" width="1.76666in" height="0.566661in" version="1.1" style="shape-rendering:geometricPrecision; text-rendering:geometricPrecision; image-rendering:optimizeQuality; fill-rule:evenodd; clip-rule:evenodd"
viewBox="0 0 1766.66 566.66"
 xmlns:xlink="http://www.w3.org/1999/xlink"
 xmlns:xodm="http://www.corel.com/coreldraw/odm/2003">
 <defs>
  <style type="text/css">
   <![CDATA[
    .str0 {stroke:#007bff;stroke-width:6.94;stroke-linecap:round;stroke-linejoin:round;stroke-miterlimit:2.61313}
    .fil0 {fill:none}
    .fil1 {fill:#007bff}
    .fil2 {fill:#007bff;fill-rule:nonzero}
   ]]>
  </style>
 </defs>
 <g id="Layer_x0020_1">
  <metadata id="CorelCorpID_0Corel-Layer"/>
  <g id="_2120262258912">
   <rect class="fil0" x="48.78" y="69.84" width="1669.09" height="426.98"/>
   <g>
    <path class="fil1" d="M1345.73 147.74l240.46 0 0 251.57 -240.46 0 0 -251.57zm61.8 44.48l240.46 0 0 251.56 -240.46 0 0 -251.56z"/>
    <path class="fil2" d="M231.22 332.46c0,11.42 -2.95,21.69 -8.86,30.82 -5.86,9.13 -14.5,16.27 -25.88,21.43 -11.37,5.16 -24.87,7.71 -40.43,7.71 -18.7,0 -34.13,-3.53 -46.25,-10.54 -8.59,-5.07 -15.56,-11.86 -20.94,-20.33 -5.38,-8.46 -8.07,-16.71 -8.07,-24.73 0,-4.63 1.63,-8.6 4.85,-11.95 3.22,-3.31 7.32,-4.94 12.3,-4.94 4.06,0 7.45,1.28 10.23,3.88 2.82,2.56 5.2,6.39 7.19,11.51 2.38,6 5.03,11.07 7.8,15.08 2.82,4.06 6.75,7.41 11.82,10.05 5.11,2.6 11.77,3.93 20.06,3.93 11.33,0 20.59,-2.65 27.69,-7.94 7.1,-5.29 10.67,-11.9 10.67,-19.84 0,-6.31 -1.9,-11.42 -5.73,-15.3 -3.83,-3.93 -8.82,-6.92 -14.9,-9 -6.04,-2.07 -14.2,-4.28 -24.34,-6.61 -13.58,-3.18 -25,-6.93 -34.12,-11.16 -9.17,-4.28 -16.45,-10.09 -21.83,-17.46 -5.38,-7.37 -8.07,-16.49 -8.07,-27.47 0,-10.41 2.82,-19.67 8.51,-27.78 5.69,-8.07 13.93,-14.29 24.69,-18.65 10.76,-4.37 23.41,-6.53 37.96,-6.53 11.59,0 21.65,1.46 30.15,4.32 8.47,2.91 15.52,6.74 21.12,11.51 5.56,4.76 9.65,9.79 12.26,15.03 2.56,5.25 3.88,10.41 3.88,15.39 0,4.54 -1.63,8.69 -4.85,12.34 -3.22,3.66 -7.27,5.47 -12.08,5.47 -4.41,0 -7.72,-1.1 -10.01,-3.26 -2.29,-2.2 -4.76,-5.82 -7.41,-10.8 -3.48,-7.15 -7.59,-12.74 -12.44,-16.76 -4.8,-4.01 -12.56,-6 -23.28,-6 -9.88,0 -17.9,2.16 -23.94,6.52 -6.09,4.37 -9.13,9.57 -9.13,15.7 0,3.79 1.01,7.06 3.08,9.83 2.07,2.74 4.94,5.11 8.56,7.1 3.61,1.98 7.28,3.53 10.98,4.67 3.7,1.1 9.83,2.74 18.34,4.9 10.67,2.51 20.37,5.24 29.01,8.29 8.64,3 16,6.66 22.09,10.98 6.09,4.28 10.8,9.74 14.2,16.31 3.4,6.61 5.11,14.68 5.11,24.25z"/>
    <path id="_1" class="fil2" d="M349.2 376.29l-31.13 -51.06 -19.13 18.03 0 28c0,6.79 -1.81,12.04 -5.38,15.7 -3.57,3.66 -7.67,5.46 -12.34,5.46 -5.43,0 -9.7,-1.81 -12.79,-5.42 -3.13,-3.61 -4.67,-8.95 -4.67,-16l0 -150.3c0,-7.85 1.5,-13.8 4.54,-17.9 3,-4.1 7.32,-6.13 12.92,-6.13 5.42,0 9.74,1.85 12.92,5.56 3.22,3.7 4.81,9.17 4.81,16.4l0 85.44 39.63 -41.57c4.94,-5.2 8.69,-8.73 11.24,-10.63 2.6,-1.9 5.73,-2.82 9.43,-2.82 4.41,0 8.07,1.41 10.98,4.19 2.95,2.82 4.41,6.31 4.41,10.54 0,5.16 -4.81,12.04 -14.33,20.68l-18.74 17.15 36.15 56.83c2.69,4.23 4.58,7.45 5.73,9.66 1.19,2.2 1.76,4.28 1.76,6.26 0,5.6 -1.54,10.01 -4.58,13.22 -3.04,3.22 -7.1,4.85 -12.08,4.85 -4.32,0 -7.63,-1.15 -9.92,-3.48 -2.34,-2.34 -5.47,-6.53 -9.44,-12.65z"/>
    <path id="_2" class="fil2" d="M501.26 329.47l-69 0c0.09,8.02 1.72,15.08 4.85,21.2 3.13,6.13 7.32,10.71 12.52,13.8 5.2,3.13 10.98,4.67 17.24,4.67 4.23,0 8.07,-0.48 11.55,-1.5 3.52,-0.97 6.88,-2.52 10.14,-4.63 3.31,-2.12 6.31,-4.37 9.04,-6.79 2.78,-2.43 6.35,-5.69 10.76,-9.83 1.81,-1.54 4.37,-2.34 7.72,-2.34 3.62,0 6.57,1.02 8.82,3 2.2,1.94 3.35,4.76 3.35,8.38 0,3.17 -1.28,6.88 -3.75,11.15 -2.51,4.23 -6.26,8.33 -11.33,12.21 -5.03,3.93 -11.33,7.19 -18.96,9.74 -7.63,2.6 -16.4,3.88 -26.28,3.88 -22.66,0 -40.25,-6.48 -52.82,-19.4 -12.56,-12.92 -18.83,-30.42 -18.83,-52.56 0,-10.41 1.54,-20.11 4.63,-29.01 3.09,-8.91 7.63,-16.53 13.54,-22.93 5.95,-6.35 13.27,-11.24 21.96,-14.64 8.69,-3.39 18.34,-5.11 28.93,-5.11 13.8,0 25.61,2.91 35.44,8.73 9.88,5.82 17.24,13.31 22.18,22.57 4.89,9.22 7.36,18.61 7.36,28.17 0,8.86 -2.56,14.64 -7.63,17.28 -5.07,2.6 -12.21,3.93 -21.43,3.93zm-69 -20.11l63.93 0c-0.84,-12.04 -4.1,-21.03 -9.74,-27.03 -5.65,-5.95 -13.05,-8.95 -22.27,-8.95 -8.81,0 -16,3.04 -21.65,9.08 -5.65,6.08 -9.08,15.04 -10.27,26.89z"/>
    <path id="_3" class="fil2" d="M562.02 252.22l3.88 0 0 -21.21c0,-5.69 0.13,-10.14 0.44,-13.36 0.31,-3.26 1.15,-6.04 2.52,-8.33 1.37,-2.43 3.35,-4.41 5.95,-5.91 2.56,-1.5 5.42,-2.25 8.64,-2.25 4.45,0 8.46,1.68 12.08,5.03 2.43,2.25 3.93,4.98 4.59,8.24 0.66,3.22 0.97,7.8 0.97,13.76l0 24.03 12.92 0c4.98,0 8.82,1.19 11.42,3.52 2.65,2.38 3.97,5.43 3.97,9.08 0,4.76 -1.9,8.07 -5.65,9.96 -3.75,1.9 -9.08,2.82 -16.09,2.82l-6.57 0 0 64.81c0,5.51 0.18,9.79 0.57,12.74 0.39,2.96 1.41,5.38 3.08,7.23 1.72,1.85 4.46,2.78 8.25,2.78 2.03,0 4.85,-0.35 8.37,-1.1 3.53,-0.71 6.31,-1.1 8.25,-1.1 2.86,0 5.42,1.15 7.71,3.44 2.3,2.29 3.4,5.11 3.4,8.46 0,5.69 -3.09,10.01 -9.26,13.01 -6.22,3.04 -15.12,4.54 -26.76,4.54 -11.02,0 -19.35,-1.85 -25,-5.56 -5.69,-3.7 -9.39,-8.81 -11.16,-15.39 -1.76,-6.52 -2.65,-15.26 -2.65,-26.19l0 -67.68 -4.63 0c-5.11,0 -9,-1.19 -11.64,-3.61 -2.69,-2.38 -4.01,-5.47 -4.01,-9.17 0,-3.66 1.41,-6.7 4.19,-9.08 2.82,-2.33 6.88,-3.52 12.21,-3.52z"/>
    <path id="_4" class="fil2" d="M780.22 348.82c0,4.36 -1.32,9.08 -3.97,14.06 -2.6,4.98 -6.61,9.74 -11.99,14.24 -5.38,4.5 -12.17,8.16 -20.37,10.89 -8.16,2.78 -17.37,4.15 -27.65,4.15 -21.78,0 -38.8,-6.35 -51.01,-19.05 -12.26,-12.7 -18.39,-29.72 -18.39,-51.1 0,-14.46 2.82,-27.25 8.42,-38.36 5.6,-11.11 13.71,-19.71 24.3,-25.75 10.63,-6.08 23.28,-9.13 38,-9.13 9.13,0 17.5,1.32 25.13,4.01 7.58,2.69 14.07,6.13 19.35,10.36 5.29,4.23 9.35,8.73 12.13,13.49 2.82,4.8 4.23,9.26 4.23,13.4 0,4.23 -1.59,7.8 -4.72,10.76 -3.17,2.91 -6.97,4.37 -11.46,4.37 -2.91,0 -5.33,-0.75 -7.28,-2.25 -1.94,-1.5 -4.1,-3.93 -6.52,-7.28 -4.32,-6.52 -8.82,-11.46 -13.49,-14.72 -4.72,-3.26 -10.67,-4.89 -17.9,-4.89 -10.41,0 -18.83,4.06 -25.18,12.21 -6.39,8.11 -9.57,19.22 -9.57,33.33 0,6.61 0.84,12.7 2.47,18.25 1.63,5.56 3.97,10.32 7.1,14.2 3.09,3.93 6.83,6.88 11.24,8.91 4.36,2.03 9.21,3.04 14.46,3.04 7.06,0 13.09,-1.63 18.12,-4.89 5.07,-3.26 9.52,-8.29 13.4,-14.99 2.11,-3.97 4.45,-7.06 6.96,-9.26 2.47,-2.25 5.56,-3.4 9.17,-3.4 4.32,0 7.89,1.68 10.71,4.94 2.82,3.26 4.28,6.74 4.28,10.45z"/>
    <path id="_5" class="fil2" d="M838.72 218.1l0 52.24c4.5,-5.16 8.86,-9.26 13.14,-12.26 4.23,-3 8.95,-5.29 14.11,-6.79 5.2,-1.5 10.76,-2.25 16.71,-2.25 8.95,0 16.89,1.9 23.85,5.69 6.92,3.79 12.34,9.3 16.31,16.53 2.52,4.19 4.19,8.91 5.07,14.15 0.84,5.2 1.28,11.2 1.28,17.99l0 67.59c0,7.06 -1.63,12.39 -4.85,16 -3.22,3.61 -7.54,5.42 -12.87,5.42 -11.64,0 -17.46,-7.14 -17.46,-21.43l0 -59.57c0,-11.29 -1.67,-19.97 -5.02,-26.01 -3.35,-6.08 -9.74,-9.13 -19.14,-9.13 -6.26,0 -11.94,1.81 -16.97,5.38 -5.03,3.57 -8.82,8.42 -11.29,14.64 -1.89,5.25 -2.87,14.59 -2.87,28.04l0 46.65c0,6.96 -1.59,12.26 -4.72,15.91 -3.13,3.66 -7.5,5.51 -13.05,5.51 -11.59,0 -17.41,-7.14 -17.41,-21.43l0 -152.9c0,-7.14 1.54,-12.48 4.58,-16.05 3.04,-3.57 7.32,-5.38 12.83,-5.38 5.56,0 9.92,1.81 13.05,5.43 3.13,3.61 4.72,8.95 4.72,16z"/>
    <path id="_6" class="fil2" d="M1090.6 348.82c0,4.36 -1.32,9.08 -3.97,14.06 -2.6,4.98 -6.61,9.74 -11.99,14.24 -5.38,4.5 -12.17,8.16 -20.37,10.89 -8.16,2.78 -17.37,4.15 -27.65,4.15 -21.78,0 -38.8,-6.35 -51.01,-19.05 -12.26,-12.7 -18.39,-29.72 -18.39,-51.1 0,-14.46 2.82,-27.25 8.42,-38.36 5.6,-11.11 13.71,-19.71 24.3,-25.75 10.63,-6.08 23.28,-9.13 38,-9.13 9.13,0 17.5,1.32 25.13,4.01 7.58,2.69 14.07,6.13 19.35,10.36 5.29,4.23 9.35,8.73 12.13,13.49 2.82,4.8 4.23,9.26 4.23,13.4 0,4.23 -1.59,7.8 -4.72,10.76 -3.17,2.91 -6.97,4.37 -11.46,4.37 -2.91,0 -5.33,-0.75 -7.28,-2.25 -1.94,-1.5 -4.1,-3.93 -6.52,-7.28 -4.32,-6.52 -8.82,-11.46 -13.49,-14.72 -4.72,-3.26 -10.67,-4.89 -17.9,-4.89 -10.41,0 -18.83,4.06 -25.18,12.21 -6.39,8.11 -9.57,19.22 -9.57,33.33 0,6.61 0.84,12.7 2.47,18.25 1.63,5.56 3.97,10.32 7.1,14.2 3.09,3.93 6.83,6.88 11.24,8.91 4.36,2.03 9.21,3.04 14.46,3.04 7.06,0 13.09,-1.63 18.12,-4.89 5.07,-3.26 9.52,-8.29 13.4,-14.99 2.11,-3.97 4.45,-7.06 6.96,-9.26 2.47,-2.25 5.56,-3.4 9.17,-3.4 4.32,0 7.89,1.68 10.71,4.94 2.82,3.26 4.28,6.74 4.28,10.45z"/>
    <path id="_7" class="fil2" d="M1146.2 271l28.53 80.15 30.73 -83.64c2.42,-6.7 4.76,-11.46 7.09,-14.28 2.34,-2.78 5.87,-4.19 10.58,-4.19 4.5,0 8.29,1.5 11.42,4.54 3.13,3 4.72,6.48 4.72,10.45 0,1.54 -0.26,3.35 -0.84,5.42 -0.57,2.07 -1.19,4.01 -1.94,5.82 -0.75,1.81 -1.59,3.88 -2.51,6.17l-33.81 83.99c-0.97,2.38 -2.16,5.46 -3.7,9.17 -1.5,3.7 -3.17,6.83 -5.03,9.48 -1.85,2.65 -4.14,4.67 -6.83,6.13 -2.74,1.46 -6,2.2 -9.88,2.2 -4.98,0 -8.95,-1.15 -11.95,-3.44 -2.95,-2.25 -5.16,-4.76 -6.57,-7.5 -1.41,-2.69 -3.84,-8.07 -7.19,-16.05l-33.55 -83.07c-0.8,-2.07 -1.59,-4.14 -2.38,-6.22 -0.83,-2.07 -1.5,-4.14 -2.07,-6.3 -0.57,-2.16 -0.84,-4.01 -0.84,-5.56 0,-2.43 0.75,-4.81 2.2,-7.19 1.46,-2.38 3.48,-4.32 6.04,-5.82 2.6,-1.5 5.38,-2.25 8.42,-2.25 5.82,0 9.88,1.68 12.08,5.03 2.16,3.39 4.58,9.04 7.27,16.93z"/>
    <circle class="fil1 str0" cx="1652.98" cy="131.59" r="21.39"/>
    <circle class="fil1 str0" cx="1340.05" cy="465.91" r="20.87"/>
   </g>
  </g>
 </g>
</svg>
